<?xml version="1.0" encoding="UTF-8"?>
<!DOCTYPE svg PUBLIC "-//W3C//DTD SVG 1.1//EN" "http://www.w3.org/Graphics/SVG/1.1/DTD/svg11.dtd">
<!-- Creator: CorelDRAW X8 -->
<svg xmlns="http://www.w3.org/2000/svg" xml:space="preserve" width="500px" height="388px" version="1.1" style="shape-rendering:geometricPrecision; text-rendering:geometricPrecision; image-rendering:optimizeQuality; fill-rule:evenodd; clip-rule:evenodd"
viewBox="0 0 500 388"
 xmlns:xlink="http://www.w3.org/1999/xlink">
 <defs>
  <style type="text/css">
   <![CDATA[
    .fil0 {fill:white}
   ]]>
  </style>
 </defs>
 <g id="Camada_x0020_1">
  <metadata id="CorelCorpID_0Corel-Layer"/>
  <path class="fil0" d="M115 309c-4,0 -10,0 -10,0 -35,-7 -80,-39 -105,-58 89,182 384,195 499,-71 -2,9 -89,90 -111,97l0 -71c0,-26 2,-193 0,-196l-142 0c-13,0 -26,0 -35,0 -109,0 -96,64 -96,154l0 109c0,13 0,25 0,36l0 0 0 0zm256 -284c-6,-2 -119,-2 -134,-2 -49,0 -107,0 -109,64 -4,64 0,134 0,202l0 22c77,23 175,7 234,-22 3,-3 9,-3 13,-6 0,-4 0,-49 0,-51 0,-23 0,-203 -4,-207l0 0zm-202 148c-9,0 -7,10 0,14 4,0 106,0 119,0 9,0 38,0 45,-4 9,0 2,-10 0,-13 -4,0 -107,0 -119,0 -7,0 -41,0 -45,3zm0 27c-3,2 -7,2 -7,9 4,4 4,4 7,4 10,0 16,0 23,0 15,0 134,0 137,0 6,0 10,-13 0,-13 -19,0 -51,0 -71,0 -9,0 -85,0 -89,0l0 0zm0 -81c-7,0 -7,3 -7,6 4,7 7,3 11,3 25,0 156,4 160,0 6,0 6,-9 -4,-9 -26,0 -156,-4 -160,0zm0 26c-7,0 -7,2 -7,6 4,6 7,6 11,6 25,0 156,0 160,-3 6,0 6,-9 -4,-9 -26,0 -156,0 -160,0z"/>
 </g>
</svg>
