<?xml version="1.0" encoding="UTF-8"?>
<!DOCTYPE svg PUBLIC "-//W3C//DTD SVG 1.1//EN" "http://www.w3.org/Graphics/SVG/1.1/DTD/svg11.dtd">
<!-- Creator: CorelDRAW X8 -->
<svg xmlns="http://www.w3.org/2000/svg" xml:space="preserve" width="700px" height="425px" version="1.1" style="shape-rendering:geometricPrecision; text-rendering:geometricPrecision; image-rendering:optimizeQuality; fill-rule:evenodd; clip-rule:evenodd"
viewBox="0 0 700 426"
 xmlns:xlink="http://www.w3.org/1999/xlink">
 <defs>
  <style type="text/css">
   <![CDATA[
    .fil0 {fill:white}
    .fil1 {fill:white;fill-rule:nonzero}
   ]]>
  </style>
 </defs>
 <g id="Camada_x0020_1">
  <metadata id="CorelCorpID_0Corel-Layer"/>
  <path class="fil0" d="M231 239c-3,0 -8,0 -8,0 -27,-5 -62,-30 -82,-45 70,142 300,152 390,-55 -2,7 -70,70 -87,75l0 -55c0,-20 2,-151 0,-153l-111 0c-10,0 -20,0 -27,0 -85,0 -75,50 -75,120l0 85c0,10 0,20 0,28l0 0zm200 -221c-5,-2 -93,-2 -105,-2 -38,0 -83,0 -85,50 -3,50 0,105 0,158l0 17c60,18 137,5 183,-17 2,-3 7,-3 10,-5 0,-3 0,-38 0,-40 0,-18 0,-158 -3,-161l0 0zm-158 115c-7,0 -5,8 0,11 3,0 83,0 93,0 7,0 30,0 35,-3 7,0 2,-8 0,-10 -3,0 -83,0 -93,0 -5,0 -32,0 -35,2zm0 21c-2,2 -5,2 -5,7 3,3 3,3 5,3 8,0 13,0 18,0 12,0 105,0 107,0 5,0 8,-10 0,-10 -15,0 -40,0 -55,0 -7,0 -67,0 -70,0l0 0zm0 -63c-5,0 -5,2 -5,5 3,5 5,2 8,2 20,0 122,3 125,0 5,0 5,-7 -3,-7 -20,0 -122,-3 -125,0zm0 20c-5,0 -5,2 -5,5 3,5 5,5 8,5 20,0 122,0 125,-3 5,0 5,-7 -3,-7 -20,0 -122,0 -125,0z"/>
  <path class="fil1" d="M56 369c0,-5 -5,-10 -10,-13 0,-2 -3,-2 -3,-2l-2 -3c0,0 2,-2 2,-2 3,-3 5,-8 5,-13 0,-2 0,-7 -2,-10 -3,-2 -5,-5 -8,-5 -2,-2 -7,-2 -12,-2l-20 0 2 0c0,0 0,2 0,2l0 70c0,0 0,0 0,3l-2 0 27 0c5,0 8,0 10,-3 3,0 5,-2 8,-5l0 0c2,-5 5,-10 5,-17l0 0 0 0zm-28 -45l0 0c3,0 5,0 5,2 3,0 5,0 8,3 0,2 0,5 0,7 0,8 -8,13 -13,13 -2,0 -12,0 -12,0l0 0 0 -25c0,0 10,0 12,0l0 0zm20 52c-2,3 -5,8 -10,10l0 0c0,0 -2,0 -5,0l-17 0 0 -30 17 0c5,0 8,3 13,8 2,2 2,7 2,12l0 0z"/>
  <path id="_1" class="fil1" d="M108 351c-5,-5 -12,-7 -20,-7 -12,0 -25,12 -25,25 0,15 13,27 25,27 15,0 28,-12 28,-27 0,-5 -3,-13 -8,-18l0 0 0 0zm-5 33c-5,2 -10,5 -15,5 -10,0 -17,-10 -17,-20 0,-10 7,-18 17,-18 10,0 20,8 20,18 0,5 -2,10 -5,15l0 0z"/>
  <path id="_2" class="fil1" d="M151 344c0,0 -3,0 -3,0 -7,0 -12,2 -15,7l0 0 0 -2c0,0 3,-3 3,-3l-10 0c0,0 0,3 0,3l0 42c0,0 0,3 0,3l10 0c0,0 -3,-3 -3,-3 0,0 0,-25 0,-25 0,-12 10,-15 15,-15 0,0 0,0 3,0l0 0 0 -7 0 0z"/>
  <path id="_3" class="fil1" d="M198 394l10 0c0,0 -2,-3 -2,-3l0 -42c0,0 2,-3 2,-3l-10 0 3 3 0 5c-3,-3 -10,-10 -20,-10 -13,0 -25,12 -25,25 0,15 12,27 25,27 10,0 17,-7 20,-10l0 5c0,0 -3,3 -3,3l0 0 0 0zm-5 -10c-2,2 -7,5 -12,5 -10,0 -18,-10 -18,-20 0,-10 8,-18 18,-18 5,0 10,3 12,5 5,3 5,8 8,13l0 2c-3,5 -3,10 -8,13l0 0z"/>
  <path class="fil1" d="M288 356c-2,0 -5,0 -7,0 -3,0 -5,0 -8,3 -2,2 -2,7 -2,12l0 25 -18 0 0 -55 18 0 0 10 0 0c2,-5 7,-10 12,-10 3,0 5,0 5,0l0 15 0 0z"/>
  <path id="_1_0" class="fil1" d="M346 374l-35 0c0,7 5,12 15,12 5,0 10,-2 15,-5l0 13c-5,2 -10,2 -20,2 -8,0 -15,-2 -20,-7 -5,-5 -8,-10 -8,-20 0,-8 3,-15 8,-20 5,-5 12,-8 20,-8 7,0 15,3 17,8 5,5 8,10 8,17l0 8 0 0zm-15 -10c0,-8 -3,-13 -10,-13 -3,0 -5,3 -8,5 -2,3 -2,5 -2,8l20 0 0 0z"/>
  <path id="_2_1" class="fil1" d="M411 389c0,10 -3,17 -10,22 -5,8 -13,10 -25,10 -8,0 -13,-2 -18,-5l0 -12c8,2 13,5 18,5 5,0 10,-3 12,-5 5,-3 5,-8 5,-13l0 -2 0 0c-2,5 -10,7 -17,7 -5,0 -13,-2 -15,-7 -5,-5 -8,-10 -8,-18 0,-10 3,-17 8,-22 5,-5 10,-8 17,-8 8,0 13,3 15,8l0 0 0 -8 18 0 0 48 0 0zm-18 -20l0 -3c0,-5 0,-7 -2,-10 -3,-2 -5,-2 -8,-2 -5,0 -7,2 -10,5 0,2 -2,5 -2,10 0,5 2,10 2,12 3,3 5,3 10,3 3,0 5,0 8,-3 2,-2 2,-7 2,-12z"/>
  <path id="_3_2" class="fil1" d="M434 334c-3,0 -5,0 -5,-3 -3,-2 -3,-2 -3,-5 0,-2 0,-5 3,-7 0,0 2,-3 5,-3 5,0 7,3 7,3 3,2 3,5 3,7 0,3 0,5 -3,5 0,3 -2,3 -7,3zm10 62l-18 0 0 -55 18 0 0 55z"/>
  <path id="_4" class="fil1" d="M454 394l0 -13c5,0 7,3 10,3 2,2 5,2 7,2 3,0 5,0 8,-2 0,0 2,-3 2,-3 0,-2 0,-2 -2,-2 0,-3 0,-3 -3,-3 0,0 -2,0 -5,-2 0,0 -2,0 -2,0 -3,0 -5,-3 -5,-3 -3,0 -5,-2 -5,-2 -3,-3 -3,-3 -3,-5 0,-3 -2,-3 -2,-5 0,-5 2,-8 2,-8 3,-2 5,-5 5,-5 3,-2 5,-2 8,-5 5,0 7,0 10,0 2,0 5,0 7,0 3,0 5,3 8,3l0 12c-3,-2 -5,-2 -8,-2 -2,0 -5,-3 -7,-3 0,0 -3,0 -3,3 0,0 -2,0 -2,0 0,0 -3,0 -3,0 0,2 0,2 0,2 0,3 0,3 0,3 3,0 3,2 3,2 2,0 2,0 5,0 0,3 2,3 2,3 3,0 5,2 8,2 0,0 2,3 5,3 0,2 2,2 2,5 0,2 0,2 0,5 0,2 0,7 -2,7 0,3 -3,5 -5,8 -3,0 -5,2 -8,2 -2,0 -7,0 -10,0 -5,0 -10,0 -17,-2z"/>
  <path id="_5" class="fil1" d="M541 394c-2,2 -7,2 -12,2 -10,0 -18,-5 -18,-17l0 -25 -7 0 0 -13 7 0 0 -10 18 -5 0 15 12 0 0 13 -12 0 0 22c0,5 2,8 7,8 0,0 3,0 5,0l0 10 0 0z"/>
  <path id="_6" class="fil1" d="M586 356c-2,0 -5,0 -7,0 -3,0 -5,0 -8,3 -2,2 -2,7 -2,12l0 25 -18 0 0 -55 18 0 0 10 0 0c2,-5 7,-10 15,-10 0,0 2,0 2,0l0 15 0 0z"/>
  <path id="_7" class="fil1" d="M641 396l-15 0 0 -7 0 0c-5,5 -10,7 -17,7 -5,0 -10,0 -13,-5 -2,-2 -5,-5 -5,-10 0,-10 8,-17 20,-17l15 -3c0,-5 -5,-10 -10,-10 -7,0 -12,3 -20,8l0 -13c3,-2 8,-2 10,-5 5,0 8,0 13,0 15,0 22,8 22,23l0 32 0 0zm-15 -22l0 -3 -10 0c-5,0 -10,3 -10,8 0,2 3,2 3,5 2,0 2,2 5,2 5,0 7,-2 7,-5 3,-2 5,-5 5,-7l0 0z"/>
  <path id="_8" class="fil1" d="M691 356c-2,0 -5,0 -7,0 -3,0 -5,0 -8,3 -2,2 -2,7 -2,12l0 25 -18 0 0 -55 18 0 0 10 0 0c2,-5 7,-10 12,-10 3,0 5,0 5,0l0 15 0 0z"/>
 </g>
</svg>
